<?xml version="1.0" encoding="utf-8"?>
<!-- Generator: Adobe Illustrator 23.0.4, SVG Export Plug-In . SVG Version: 6.00 Build 0)  -->
<svg version="1.1" id="Laag_1" xmlns="http://www.w3.org/2000/svg" xmlns:xlink="http://www.w3.org/1999/xlink" x="0px" y="0px"
	 viewBox="0 0 19 19" style="enable-background:new 0 0 19 19;" xml:space="preserve">
<style type="text/css">
	.st0{fill:none;stroke:#222222;stroke-width:1;stroke-linecap:round;stroke-linejoin:round;}
</style>
<path class="st0" d="M5.2,1h8.5C16.1,1,18,2.9,18,5.2v8.5c0,2.4-1.9,4.2-4.2,4.2H5.2C2.9,18,1,16.1,1,13.8V5.2C1,2.9,2.9,1,5.2,1z"
	/>
<path class="st0" d="M12.9,9c0.3,1.9-1,3.6-2.9,3.8s-3.6-1-3.8-2.9c-0.3-1.8,1-3.6,2.9-3.8c0.3-0.1,0.7-0.1,1,0
	C11.5,6.4,12.6,7.5,12.9,9z"/>
<line class="st0" x1="14.2" y1="4.8" x2="14.2" y2="4.8"/>
</svg>
